<svg width="17" height="13" viewBox="0 0 17 13" fill="none" xmlns="http://www.w3.org/2000/svg">
<path d="M14.7315 0.0332375C14.6744 0.0533094 14.5644 0.0974693 14.4869 0.133599C14.4095 0.173744 12.4412 2.07661 10.1142 4.36486L5.88821 8.52787L4.26627 6.93412C3.15781 5.8462 2.59136 5.31629 2.46502 5.25206C2.18791 5.11557 1.74371 5.09951 1.42584 5.21994C1.21801 5.29622 1.11205 5.38052 0.688227 5.79401C0.101394 6.37611 0.00766419 6.53268 0.00358896 6.9823C-0.00456149 7.56038 -0.155345 7.37973 2.76659 10.2702C4.54339 12.0285 5.43179 12.8756 5.54182 12.9277C5.74966 13.0241 6.02677 13.0241 6.23461 12.9277C6.34871 12.8756 8.00325 11.2698 11.618 7.70089C17.4456 1.95216 16.9973 2.43791 16.9891 1.84377C16.9851 1.39415 16.8913 1.23758 16.3045 0.655481C15.8888 0.246005 15.7747 0.157686 15.575 0.0854254C15.3346 -0.00289249 14.9393 -0.0269794 14.7315 0.0332375Z" fill="#FF9E7B"/>
</svg>
