<svg width="30" height="20" viewBox="0 0 30 20" fill="none" xmlns="http://www.w3.org/2000/svg">
<path d="M15.6646 19.9738L9.50979 19.8653C7.51699 19.8275 5.51924 19.903 3.56551 19.5113C0.593442 18.9262 0.38289 16.057 0.16257 13.6504C-0.141009 10.2669 -0.0234844 6.82204 0.549408 3.46682C0.872825 1.58419 2.1456 0.460812 4.1139 0.338567C10.7584 -0.105078 17.447 -0.0525011 24.0768 0.154475C24.777 0.173449 25.482 0.277155 26.1724 0.395199C29.5804 0.970938 29.6635 4.22231 29.8844 6.95935C30.1048 9.72463 30.0117 12.5041 29.5906 15.2506C29.2528 17.5246 28.6064 19.4315 25.8786 19.6156C22.4607 19.8563 19.1214 20.0501 15.6939 19.9884C15.6941 19.9738 15.6744 19.9738 15.6646 19.9738ZM12.0462 14.2167C14.6218 12.7915 17.1483 11.39 19.7091 9.97434C17.1287 8.54911 14.6071 7.14764 12.0462 5.73197V14.2167Z" fill="#080808"/>
</svg>
